<?xml version="1.0" encoding="UTF-8" standalone="no"?>
<svg
   height="159"
   width="159"
   class="pyqrcode"
   version="1.1"
   id="svg208"
   sodipodi:docname="qrcode-sticker.svg"
   inkscape:version="1.2.1 (9c6d41e410, 2022-07-14)"
   xmlns:inkscape="http://www.inkscape.org/namespaces/inkscape"
   xmlns:sodipodi="http://sodipodi.sourceforge.net/DTD/sodipodi-0.dtd"
   xmlns="http://www.w3.org/2000/svg"
   xmlns:svg="http://www.w3.org/2000/svg">
  <defs
     id="defs212" />
  <sodipodi:namedview
     id="namedview210"
     pagecolor="#ffffff"
     bordercolor="#666666"
     borderopacity="1.0"
     inkscape:showpageshadow="2"
     inkscape:pageopacity="0.0"
     inkscape:pagecheckerboard="0"
     inkscape:deskcolor="#d1d1d1"
     showgrid="false"
     inkscape:zoom="5.4968553"
     inkscape:cx="79.590962"
     inkscape:cy="79.500001"
     inkscape:window-width="1918"
     inkscape:window-height="1057"
     inkscape:window-x="1920"
     inkscape:window-y="21"
     inkscape:window-maximized="1"
     inkscape:current-layer="svg208" />
  <g
     id="path206"
     class="pyqrline"
     transform="scale(3)">
    <path
       style="color:#ffffff;fill:#ffffff;-inkscape-stroke:none"
       d="m 4,4.5 h 7 m 1,0 h 1 m 2,0 h 2 m 1,0 h 4 m 1,0 h 2 m 4,0 h 2 m 3,0 h 1 m 1,0 h 1 m 3,0 h 1 m 1,0 h 7 m -45,1 h 1 m 5,0 h 1 m 2,0 h 4 m 1,0 h 2 m 2,0 h 1 m 2,0 h 2 m 2,0 h 1 m 4,0 h 1 m 1,0 h 1 m 2,0 h 1 m 2,0 h 1 m 5,0 h 1 m -45,1 h 1 m 1,0 h 3 m 1,0 h 1 m 5,0 h 7 m 1,0 h 1 m 1,0 h 1 m 5,0 h 3 m 1,0 h 1 m 2,0 h 1 m 2,0 h 1 m 1,0 h 3 m 1,0 h 1 m -45,1 h 1 m 1,0 h 3 m 1,0 h 1 m 1,0 h 3 m 1,0 h 1 m 1,0 h 5 m 4,0 h 3 m 1,0 h 2 m 4,0 h 1 m 1,0 h 2 m 1,0 h 1 m 1,0 h 3 m 1,0 h 1 m -45,1 h 1 m 1,0 h 3 m 1,0 h 1 m 2,0 h 3 m 2,0 h 2 m 3,0 h 6 m 2,0 h 1 m 4,0 h 5 m 1,0 h 1 m 1,0 h 3 m 1,0 h 1 m -45,1 h 1 m 5,0 h 1 m 2,0 h 7 m 4,0 h 1 m 3,0 h 3 m 3,0 h 3 m 5,0 h 1 m 5,0 h 1 m -45,1 h 7 m 1,0 h 1 m 1,0 h 1 m 1,0 h 1 m 1,0 h 1 m 1,0 h 1 m 1,0 h 1 m 1,0 h 1 m 1,0 h 1 m 1,0 h 1 m 1,0 h 1 m 1,0 h 1 m 1,0 h 1 m 1,0 h 1 m 1,0 h 1 m 1,0 h 1 m 1,0 h 7 m -33,1 h 3 m 1,0 h 5 m 3,0 h 2 m 1,0 h 3 m 2,0 h 1 m 2,0 h 2 m -35,1 h 1 m 1,0 h 3 m 1,0 h 3 m 3,0 h 2 m 1,0 h 1 m 2,0 h 7 m 2,0 h 1 m 1,0 h 1 m 4,0 h 2 m 3,0 h 1 m 2,0 h 1 m -44,1 h 2 m 1,0 h 2 m 3,0 h 1 m 1,0 h 2 m 1,0 h 4 m 3,0 h 2 m 1,0 h 2 m 2,0 h 1 m 1,0 h 2 m 5,0 h 7 m -42,1 h 2 m 2,0 h 1 m 1,0 h 3 m 2,0 h 1 m 1,0 h 2 m 2,0 h 1 m 2,0 h 1 m 1,0 h 3 m 1,0 h 1 m 2,0 h 1 m 1,0 h 3 m 1,0 h 1 m 2,0 h 1 m -41,1 h 6 m 1,0 h 2 m 1,0 h 2 m 1,0 h 2 m 1,0 h 2 m 4,0 h 3 m 1,0 h 2 m 1,0 h 3 m 1,0 h 2 m 1,0 h 1 m 1,0 h 1 m 2,0 h 1 m 2,0 h 1 m -44,1 h 3 m 1,0 h 3 m 5,0 h 1 m 2,0 h 1 m 2,0 h 4 m 1,0 h 3 m 1,0 h 2 m 2,0 h 1 m 3,0 h 1 m 1,0 h 2 m 1,0 h 2 m -43,1 h 3 m 1,0 h 1 m 2,0 h 1 m 1,0 h 1 m 3,0 h 1 m 3,0 h 1 m 1,0 h 12 m 5,0 h 3 m 1,0 h 1 m 1,0 h 3 m -45,1 h 3 m 1,0 h 4 m 1,0 h 1 m 2,0 h 1 m 1,0 h 1 m 2,0 h 1 m 1,0 h 2 m 4,0 h 3 m 3,0 h 4 m 2,0 h 3 m 2,0 h 1 m -42,1 h 5 m 2,0 h 1 m 1,0 h 1 m 3,0 h 2 m 1,0 h 3 m 2,0 h 1 m 1,0 h 1 m 1,0 h 3 m 1,0 h 1 m 2,0 h 2 m 2,0 h 1 m 1,0 h 4 m 1,0 h 1 m -45,1 h 1 m 2,0 h 2 m 1,0 h 2 m 2,0 h 1 m 3,0 h 4 m 2,0 h 5 m 3,0 h 1 m 1,0 h 2 m 2,0 h 1 m 1,0 h 1 m 1,0 h 1 m 3,0 h 3 m -45,1 h 4 m 4,0 h 5 m 1,0 h 2 m 3,0 h 1 m 6,0 h 1 m 1,0 h 2 m 1,0 h 4 m 1,0 h 1 m 1,0 h 2 m 1,0 h 1 m 1,0 h 2 m -42,1 h 1 m 1,0 h 4 m 1,0 h 1 m 4,0 h 1 m 1,0 h 2 m 3,0 h 1 m 3,0 h 3 m 1,0 h 1 m 1,0 h 2 m 1,0 h 3 m 2,0 h 2 m -42,1 h 1 m 1,0 h 1 m 1,0 h 2 m 3,0 h 1 m 5,0 h 2 m 2,0 h 1 m 5,0 h 1 m 2,0 h 1 m 1,0 h 1 m 1,0 h 2 m 2,0 h 3 m 2,0 h 1 m 1,0 h 2 m -45,1 h 3 m 1,0 h 6 m 1,0 h 1 m 1,0 h 1 m 2,0 h 1 m 3,0 h 7 m 8,0 h 7 m 2,0 h 1 m -44,1 h 1 m 1,0 h 2 m 3,0 h 1 m 4,0 h 3 m 4,0 h 1 m 3,0 h 1 m 2,0 h 1 m 2,0 h 2 m 1,0 h 4 m 3,0 h 1 m 1,0 h 1 m 1,0 h 1 m -45,1 h 2 m 1,0 h 2 m 1,0 h 1 m 1,0 h 1 m 1,0 h 1 m 4,0 h 2 m 2,0 h 2 m 1,0 h 1 m 1,0 h 2 m 1,0 h 2 m 1,0 h 1 m 3,0 h 1 m 1,0 h 1 m 1,0 h 1 m 1,0 h 1 m -40,1 h 1 m 1,0 h 2 m 3,0 h 1 m 1,0 h 2 m 1,0 h 1 m 2,0 h 1 m 2,0 h 2 m 3,0 h 3 m 1,0 h 2 m 2,0 h 1 m 1,0 h 3 m 3,0 h 3 m -41,1 h 1 m 1,0 h 6 m 2,0 h 1 m 2,0 h 1 m 2,0 h 1 m 1,0 h 6 m 5,0 h 2 m 2,0 h 7 m 1,0 h 1 m -43,1 h 1 m 1,0 h 1 m 1,0 h 1 m 1,0 h 1 m 1,0 h 1 m 3,0 h 1 m 3,0 h 4 m 3,0 h 2 m 2,0 h 2 m 1,0 h 5 m 2,0 h 2 m 2,0 h 3 m -45,1 h 1 m 1,0 h 2 m 2,0 h 4 m 5,0 h 3 m 1,0 h 2 m 1,0 h 1 m 1,0 h 1 m 5,0 h 1 m 1,0 h 1 m 1,0 h 1 m 1,0 h 1 m 3,0 h 1 m 1,0 h 1 m -41,1 h 2 m 1,0 h 1 m 2,0 h 2 m 1,0 h 2 m 1,0 h 1 m 2,0 h 1 m 2,0 h 2 m 1,0 h 1 m 2,0 h 2 m 2,0 h 2 m 2,0 h 1 m 1,0 h 2 m 2,0 h 3 m -43,1 h 1 m 1,0 h 1 m 2,0 h 4 m 1,0 h 1 m 3,0 h 3 m 1,0 h 3 m 1,0 h 6 m 5,0 h 2 m 1,0 h 2 m 3,0 h 4 m -43,1 h 1 m 1,0 h 2 m 1,0 h 1 m 1,0 h 1 m 1,0 h 1 m 1,0 h 3 m 2,0 h 1 m 1,0 h 1 m 2,0 h 1 m 2,0 h 4 m 1,0 h 2 m 1,0 h 5 m 1,0 h 1 m 3,0 h 1 m -45,1 h 2 m 3,0 h 2 m 2,0 h 2 m 3,0 h 1 m 2,0 h 3 m 4,0 h 2 m 3,0 h 2 m 1,0 h 6 m 4,0 h 3 m -45,1 h 1 m 2,0 h 2 m 2,0 h 2 m 1,0 h 2 m 1,0 h 2 m 2,0 h 1 m 2,0 h 3 m 5,0 h 1 m 1,0 h 6 m 3,0 h 1 m 1,0 h 2 m -43,1 h 1 m 1,0 h 1 m 1,0 h 3 m 1,0 h 2 m 1,0 h 1 m 1,0 h 1 m 1,0 h 7 m 1,0 h 1 m 2,0 h 2 m 1,0 h 4 m 2,0 h 2 m 1,0 h 2 m 1,0 h 1 m 1,0 h 1 m -43,1 h 2 m 2,0 h 1 m 1,0 h 2 m 2,0 h 3 m 2,0 h 2 m 1,0 h 1 m 1,0 h 2 m 2,0 h 1 m 1,0 h 3 m 1,0 h 1 m 2,0 h 3 m 2,0 h 1 m 1,0 h 2 m 1,0 h 1 m -41,1 h 1 m 1,0 h 1 m 4,0 h 1 m 1,0 h 5 m 1,0 h 1 m 1,0 h 1 m 1,0 h 2 m 1,0 h 2 m 2,0 h 3 m 1,0 h 7 m 2,0 h 1 m -43,1 h 4 m 2,0 h 2 m 3,0 h 3 m 2,0 h 1 m 3,0 h 1 m 2,0 h 4 m 3,0 h 3 m 1,0 h 3 m 1,0 h 1 m 2,0 h 2 m -44,1 h 1 m 2,0 h 2 m 1,0 h 1 m 1,0 h 1 m 2,0 h 5 m 2,0 h 9 m 1,0 h 1 m 4,0 h 8 m 1,0 h 1 m -35,1 h 1 m 2,0 h 1 m 5,0 h 1 m 1,0 h 2 m 3,0 h 1 m 8,0 h 1 m 2,0 h 1 m 3,0 h 1 m 2,0 h 1 m -44,1 h 7 m 3,0 h 3 m 2,0 h 4 m 1,0 h 1 m 1,0 h 1 m 1,0 h 2 m 1,0 h 4 m 1,0 h 5 m 1,0 h 1 m 1,0 h 2 m 2,0 h 1 m -45,1 h 1 m 5,0 h 1 m 1,0 h 1 m 3,0 h 5 m 1,0 h 3 m 3,0 h 3 m 1,0 h 1 m 4,0 h 2 m 1,0 h 1 m 3,0 h 1 m 1,0 h 1 m -43,1 h 1 m 1,0 h 3 m 1,0 h 1 m 1,0 h 1 m 2,0 h 2 m 3,0 h 1 m 2,0 h 6 m 1,0 h 1 m 4,0 h 2 m 2,0 h 6 m 3,0 h 1 m -45,1 h 1 m 1,0 h 3 m 1,0 h 1 m 2,0 h 1 m 2,0 h 2 m 1,0 h 3 m 3,0 h 1 m 1,0 h 2 m 3,0 h 1 m 3,0 h 2 m 3,0 h 1 m 1,0 h 3 m 1,0 h 2 m -45,1 h 1 m 1,0 h 3 m 1,0 h 1 m 1,0 h 1 m 3,0 h 4 m 2,0 h 1 m 1,0 h 5 m 2,0 h 2 m 3,0 h 1 m 2,0 h 3 m 1,0 h 1 m 1,0 h 1 m 2,0 h 1 m -45,1 h 1 m 5,0 h 1 m 2,0 h 1 m 3,0 h 3 m 1,0 h 1 m 2,0 h 1 m 2,0 h 3 m 3,0 h 1 m 2,0 h 1 m 1,0 h 4 m 3,0 h 1 m 1,0 h 2 m -45,1 h 7 m 2,0 h 4 m 1,0 h 2 m 6,0 h 6 m 1,0 h 1 m 2,0 h 3 m 1,0 h 5 m 3,0 h 1"
       id="path420" />
    <path
       style="color:#ffffff;fill:#ffffff;-inkscape-stroke:none"
       d="m 4,4 v 1 1 1 1 1 1 1 h 7 V 10 9 8 7 6 5 4 Z m 8,0 v 1 h 1 V 4 Z m 1,1 v 1 h 3 v 1 1 h 1 V 7 h 1 V 8 9 H 16 V 8 H 15 V 7 h -3 v 1 h 1 v 1 1 h 1 v 1 h 1 v -1 h 1 v 1 1 h 2 v 1 1 h 1 v 1 h 1 v 1 1 h 1 v -1 h 1 v -1 h -1 v -1 h 1 v -1 -1 h 2 v 1 h 1 v 1 h 1 v 1 1 h -3 v 1 1 1 h -1 v -1 -1 h -1 v 1 1 1 h -1 v -1 h -1 v -1 h -1 v 1 1 1 1 h 1 v 1 1 h 1 v 1 h 1 v -1 -1 h -1 v -1 -1 h 2 v -1 h 2 v -1 h 1 v -1 h 4 v 1 h 1 v 1 h 2 v 1 1 h -1 v -1 h -1 v 1 1 h 2 v 1 h 1 v -1 -1 h 1 v -1 h -1 v -1 -1 h -1 v -1 h 3 v -1 h -1 v -1 h 2 v -1 -1 -1 -1 h -1 v 1 h -1 v 1 h 1 v 1 h -2 v 1 h -1 v 1 h -1 v -1 h 1 v -1 h -1 v -1 h -1 v -1 h 1 v -1 h -1 v -1 h -1 v -1 h 1 v 1 h 1 V 10 9 H 29 V 8 h 1 V 7 h -3 v 1 h -4 v 1 h 1 v 1 1 h -1 v -1 h -1 v 1 h -1 v -1 h -1 v 1 1 h 1 v 1 h -1 v -1 h -1 v -1 -1 h 1 V 9 8 h 3 V 7 6 5 H 22 V 6 H 20 V 5 h 2 V 4 H 18 V 5 6 H 17 V 5 4 h -2 v 1 z m 10,0 h 2 V 4 h -2 z m 2,0 v 1 h 1 v 1 h 1 V 6 5 Z m 0,1 h -1 v 1 h 1 z m 6,3 h 1 V 8 h 1 V 7 h 2 V 6 5 4 h -1 v 1 1 h -2 v 1 h -1 v 1 z m 0,2 v 1 h 2 v 1 h 1 v -1 -1 h -1 v -1 h -1 v 1 z m 3,0 h 1 v -1 h 1 v 1 1 h 1 V 11 10 9 h 4 V 8 7 H 40 V 6 5 H 39 V 6 7 8 H 38 V 7 h -1 v 1 h -1 v 1 h -2 v 1 z M 37,7 V 6 5 4 h -1 v 1 1 1 z m 3,-2 h 1 V 4 h -1 z m -7,8 h -1 v 1 1 h 1 v -1 z m 3,3 v 1 h 1 v -1 z m 1,0 h 2 v -1 h 1 v -1 h -3 v 1 z m 3,-1 v 1 1 1 h 1 v 1 1 h 1 v -1 h 1 v 1 h 3 v 1 h 1 v 1 h 2 v -1 -1 -1 h -1 v 1 h -1 v -1 -1 h 2 v -1 h -2 v -1 h -1 v -1 h -1 v 1 1 h 1 v 1 1 h -2 v -1 h -1 v -1 h 1 v -1 h -1 v -1 h -1 v 1 1 h -1 v -1 -1 z m 1,0 h 1 v -1 h 2 v 1 h 1 v -1 h 3 v -1 h -2 v -1 h -1 v 1 h -3 v -1 h -1 v -1 -1 h -1 v 1 h -1 v 1 h 1 v 1 h 1 v 1 z m -2,-4 v -1 h -1 v 1 z m 9,2 h 1 v -1 h -1 z m -4,4 v 1 h 1 v -1 z m 2,4 h -1 v 1 h -1 v 1 h 1 v 1 h -2 v -1 h -1 v -1 h -1 v -1 -1 h -1 v 1 1 h -1 v 1 h 1 v 1 h -1 v 1 h -2 v 1 h 1 v 1 1 h 1 v 1 h -2 v -1 -1 h -1 v 1 h -1 v 1 1 h 1 v 1 h 1 v -1 h 1 v 1 1 h -1 v 1 h 1 v 1 h -1 v -1 h -2 v 1 h 1 v 1 h -1 v -1 h -1 v -1 h -2 v -1 -1 h -2 v 1 h -2 v -1 h -1 v 1 h -1 v 1 h 1 v 1 h 1 v -1 h 2 v 1 h 3 v 1 h 1 v 1 h -1 v 1 h -1 v -1 h -2 v 1 h 1 v 1 h -1 v 1 h -1 v -1 h -2 v 1 h 1 v 1 h -2 v -1 -1 h 1 v -1 h -1 v -1 h 1 v -1 h -3 v 1 h -2 v -1 h 2 v -1 h -1 v -1 h 1 v 1 h 1 v -1 -1 h 1 v -1 h -1 v -1 -1 h 3 v 1 1 h 1 v -1 h 1 v -1 -1 h 1 v -1 h -1 v -1 h -1 v -1 h 2 v -1 h -1 v -1 h -1 v 1 h -5 v 1 1 h -1 v 1 1 h 1 v 1 h -1 v -1 h -1 v 1 h -1 v 1 h -2 v 1 h 2 v 1 h 1 v -1 -1 h 1 v 1 h 1 v 1 h -2 v 1 1 h -1 v 1 1 h -2 v 1 h 1 v 1 h -2 v -1 -1 h 1 v -1 -1 h 1 v -1 h 1 v -1 h -2 v -1 h -1 v 1 1 h -1 v 1 h 1 v 1 h -1 v 1 1 h -1 v -1 -1 h -1 v -1 h -1 v -1 h -1 v 1 1 h 1 v 1 h 1 v 1 1 1 h 1 v -1 h 1 v 1 h -1 v 1 h -1 v 1 1 h -1 v 1 h 2 v 1 h -1 v 1 h 1 v 1 1 h 1 v 1 h 1 v 1 h 2 v -1 -1 -1 h 2 v -1 h -1 v -1 -1 h 1 v 1 h 1 v 1 h 2 v 1 h -1 v 1 1 h 1 v -1 h 2 v 1 h -1 v 1 h 6 v -1 h -2 v -1 h -1 v -1 -1 -1 h 1 v 1 h 1 v -1 -1 h -1 v -1 h -1 v -1 h 2 v -1 h 1 v -1 -1 h 2 v -1 h 1 v 1 h -1 v 1 h 1 v 1 h 2 v 1 1 h -1 v 1 h 1 v 1 h 2 v -1 h 1 v 1 h -1 v 1 h 2 v 1 h -2 v 1 h -1 v 1 h -1 v -1 -1 h 1 v -1 h -1 v -1 h -2 v 1 h 1 v 1 1 1 1 h 3 v -1 h 1 v 1 h 5 v -1 h -3 v -1 -1 -1 h 1 v 1 1 h 1 v -1 h 1 v 1 1 h 1 v -1 -1 -1 h -1 v -1 -1 h 1 v -1 h -1 v -1 -1 h -1 v -1 h 1 v -1 h -1 v -1 -1 -1 h -1 v 1 h -1 v 1 h 1 v 1 h -2 v -1 -1 h -1 v -1 h 2 v -1 h 1 v -1 h -1 v -1 -1 h -1 v -1 h -1 v 1 1 1 h -1 v -1 -1 -1 h 1 v -1 h 2 v 1 h 2 v -1 h 2 v -1 h 1 v -1 h -2 v -1 -1 h 1 v -1 -1 -1 z m 0,4 v 1 h 1 v -1 z m 1,3 v 1 h -1 v 1 1 h -1 v -1 h -1 v 1 1 h 1 v 1 h 3 v 1 h -2 v 1 h -1 v 1 1 1 h 2 v -1 h -1 v -1 h 1 v -1 h 2 v -1 -1 -1 h -2 v -1 -1 h 2 v -1 h -1 v -1 z m 0,8 v 1 h 1 v -1 z m 1,1 v 1 h 1 v -1 z m 0,1 h -1 v 1 h -1 v 1 1 h 1 v -1 h 1 v -1 z m -1,3 v 1 h 1 v -1 z m 1,1 v 1 h 1 v -1 z m -3,-9 h -1 v 1 h 1 z m 1,10 v 1 h 1 V 43 Z M 32,40 v 1 h 1 v -1 z m -1,3 h 1 v 1 h 1 v -1 h 2 v -1 h -4 z m -9,3 v 1 h 1 v -1 z m 0,1 h -1 v 1 h 1 z m -5,1 h -3 v -1 h -1 v 1 1 h 4 z m -4,-1 v -1 h -1 v 1 z m 0,-1 h 1 v -1 h -1 z m 0,-1 v -1 -1 h -1 v 1 1 z m 1,-9 h -1 v -1 h -2 v 1 h 1 v 1 h -1 v 1 h 2 v -1 h 1 z m -3,2 h -1 v 1 h 1 z m 0,1 v 1 h 1 v 1 1 h 1 v -1 -1 -1 z m 0,1 h -1 v 1 h 1 z m -1,-2 v -1 h 1 V 36 H 9 V 35 H 7 v 1 h 1 v 1 h 1 v 1 z M 9,38 H 8 v 1 H 5 v 1 h 2 v 1 H 9 V 40 39 Z M 5,40 H 4 v 1 H 5 Z M 7,36 H 6 v 1 H 5 v 1 H 7 V 37 Z M 5,37 V 36 35 H 6 V 34 H 4 v 1 1 1 z M 6,34 H 7 V 33 32 H 8 V 31 30 29 H 7 v 1 H 6 v 1 1 1 z M 6,30 V 29 H 5 v 1 z M 5,30 H 4 v 1 H 5 Z M 6,29 H 7 V 28 H 6 Z M 6,28 V 27 26 25 H 7 V 24 23 H 6 v 1 H 5 V 23 H 4 v 1 1 h 1 v 1 H 4 v 1 h 1 v 1 z m 1,-5 h 1 v -1 -1 h 1 v -1 h 1 v -1 h 2 v -1 -1 -1 h 1 v -1 h 1 v 1 h 2 v -1 h -1 v -1 h -1 v -1 h 1 v -1 h -3 v 1 h 1 v 1 h -1 v 1 h -1 v 1 H 10 V 15 H 8 V 14 H 7 V 13 12 H 6 v 1 H 5 v 1 h 1 v 1 H 4 v 1 h 1 v 1 H 4 v 1 1 h 1 v 1 h 2 v 1 H 5 V 20 H 4 v 1 1 h 3 z m 1,-9 h 2 v -1 h 1 V 12 H 8 v 1 z m 2,0 v 1 h 1 v -1 z m 5,-1 v 1 h 2 v -1 z m 2,1 v 1 1 1 1 h 1 v -1 -1 h 1 v -1 h -1 v -1 z m 0,4 h -1 v 1 h 1 z m -5,1 v 1 h 1 v -1 z m 1,0 h 1 v -1 -1 h -1 v 1 z m 1,0 v 1 1 h -2 v 1 H 9 v 1 H 8 v 1 1 H 7 v 1 1 1 h 1 v 1 h 1 v 1 h 1 v -1 h 1 v 1 h -1 v 1 h 2 v 1 H 10 V 31 H 9 v 1 1 H 8 v 1 h 1 v 1 h 2 v -1 h -1 v -1 h 1 v 1 h 1 v -1 h 1 v -1 h 1 v -1 -1 -1 -1 h -1 v -1 -1 -1 h 1 v -1 -1 h -1 v 1 h -3 v -1 h 3 v -1 h 1 v 1 h 1 v -1 h 2 v -1 h -2 v -1 -1 z m 0,9 h 2 v -1 h -1 v -1 h -1 v 1 z m 2,0 v 1 h 1 v -1 z m 1,0 h 1 v -1 h -1 z m 0,1 v 1 h 1 v -1 z m -3,3 v 1 h 1 v -1 z m 1,0 h 2 v -1 h -2 z m 0,1 v 1 h 1 V 33 Z M 12,21 v -1 h -2 v 1 z m 12,3 v -1 h -1 v 1 z m -1,-1 v -1 h -2 v 1 z m 0,-1 h 1 v -1 h -1 z m 1,-1 h 5 v -1 -1 h -1 v 1 h -1 v -1 h -1 v 1 h -2 z m 7,4 v 1 1 h 1 v 1 h 2 v -1 h -1 v -1 h -1 v -1 z m 3,2 h 1 v -1 h 1 v -1 h -2 v 1 z m -8,4 h 1 v -1 h -1 z m 1,5 v 1 h 1 v -1 z m 2,2 h 1 v -1 h -1 z m 3,-2 h 1 v -1 h -1 z m -2,-2 h -2 v 1 h 2 z m 6,-3 h -1 v -1 h -1 v 1 1 h 2 z m -2,-1 v -1 h -2 v 1 z m 5,-8 v -1 -1 -1 -1 h -4 v 1 h 2 v 1 h 1 v 1 h -2 v -1 h -1 v -1 h -1 v 1 1 h 1 v 1 h 1 v 1 1 h 2 v -1 -1 z m -4,0 h -1 v 1 1 h 1 v -1 z m 7,0 h 2 v -1 h -1 v -1 h -1 v 1 z m -22,3 h -2 v -1 h -1 v 1 1 h 2 v 1 h 1 v 1 h 1 v -1 -1 h -1 z m 0,3 h -1 v 1 h 1 z M 13,10 h -1 v 1 h 1 z M 29,4 v 1 1 h 1 V 5 h 1 V 4 Z m 13,0 v 1 1 1 1 1 1 1 h 7 V 10 9 8 7 6 5 4 Z M 5,5 h 5 v 1 1 1 1 1 H 5 V 9 8 7 6 Z m 38,0 h 5 v 1 1 1 1 1 H 43 V 9 8 7 6 Z M 6,6 V 7 8 9 H 9 V 8 7 6 Z m 38,0 v 1 1 1 h 3 V 8 7 6 Z M 25,9 h 3 v 1 1 1 h -3 v -1 -1 z m -8,1 h 1 v 1 h -1 z m 9,0 v 1 h 1 v -1 z m 1,3 h 1 v 1 1 h -1 v -1 z m -4,1 v 1 h 1 v -1 z m 6,1 h 1 v 1 h -1 z m 19,0 v 1 h 1 V 15 Z M 8,16 h 1 v 1 h 2 v 1 H 9 V 17 H 8 v 1 1 H 7 v -1 -1 h 1 z m 19,0 h 1 v 1 h -1 z m -1,6 v 1 h 1 v -1 z m 21,1 v 1 h 1 v 1 1 h 1 v -1 -1 -1 z m -32,1 v 1 h 1 v -1 z m -6,1 h 3 v 1 1 1 H 9 v -1 -1 z m 16,0 h 3 v 1 1 1 h -3 v -1 -1 z m 16,0 h 3 v 1 1 1 h -3 v -1 -1 z m -31,1 v 1 h 1 v -1 z m 16,0 v 1 h 1 v -1 z m 13,0 h 1 v 1 h -1 z m 3,0 v 1 h 1 v -1 z m -30,3 h 1 v 1 h -1 z m -8,3 v 1 h 1 v -1 z m 33,4 h 2 v 1 h -1 v 1 1 h 1 v 1 h -1 v -1 h -1 v -1 h -1 v -1 h 1 z m -15,1 h 1 v 1 1 h 1 v -1 -1 h 1 v 1 1 1 h -3 v 1 h 1 v 1 h 1 v 1 h -1 v -1 h -1 v -1 h -1 v 1 h -2 v 1 h -2 v -1 h -1 v -1 h 4 v -1 h -1 v -1 h 2 v 1 h 1 v -1 -1 z m 20,2 h 1 v 1 h -1 z m -17,2 h 3 v 1 1 1 h -3 v -1 -1 z m 13,0 h 2 v 1 h -2 z m 3,0 h 3 v 1 1 1 H 41 V 43 42 Z M 4,42 v 1 1 1 1 1 1 1 h 7 v -1 -1 -1 -1 -1 -1 -1 z m 22,0 v 1 h 1 v -1 z m 16,0 v 1 h 1 V 42 Z M 5,43 h 5 v 1 1 1 1 1 H 5 v -1 -1 -1 -1 z m 1,1 v 1 1 1 h 3 v -1 -1 -1 z m 11,0 h 3 v 1 h -1 v 1 h -1 v -1 h -1 z m 31,0 v 1 h -1 v 1 h 1 v 1 h -1 v 1 h 1 v 1 h 1 v -1 -1 -1 -1 -1 z m -22,1 h 1 v 1 h -1 z m 6,0 v 1 h -1 v 1 h 2 v -1 -1 z m 1,2 v 1 1 h 1 v -1 -1 z"
       id="path422" />
  </g>
</svg>
