<?xml version="1.0" encoding="UTF-8"?>
<svg width="210mm" height="297mm" version="1.1" viewBox="0 0 210 297" xml:space="preserve" xmlns="http://www.w3.org/2000/svg"><g transform="matrix(.26458 0 0 .26458 10.627 -6.5114)" style="fill:#fff"><path d="m233.6 160.5a128.6 128.6 0 0 1-128.6 128.6 128.6 128.6 0 0 1-128.6-128.6 128.6 128.6 0 0 1 128.6-128.6 128.6 128.6 0 0 1 128.6 128.6z" style="fill:#666"/><g style="stroke-width:3.4357" aria-label="600"><path d="m53.553 80.771q0-4.0239 0.5937-8.0479 0.5937-4.0239 2.1109-7.5861t4.2878-6.2668q2.7706-2.7706 7.0584-4.3538 4.3538-1.5832 10.621-1.5832 1.3853 0 3.3643 0.1979 2.045 0.13193 3.3643 0.32983v9.9609q-1.3193-0.26386-2.9685-0.3958-1.6492-0.1979-4.0239-0.1979-4.7496 0-7.5201 1.4513-2.7706 1.3853-4.0239 4.0899-1.1874 2.6386-1.3853 6.3987h0.3958q1.2534-2.3088 3.3643-3.892 2.1769-1.5832 5.937-1.5832 6.2008 0 9.697 4.0239 3.4962 3.958 3.4962 11.28 0 7.9159-4.4857 12.336-4.4197 4.4197-12.138 4.4197-5.0134 0-9.0374-2.1769-4.0239-2.2428-6.3987-6.7945-2.3088-4.5517-2.3088-11.61zm17.481 10.489q2.045 0 3.2983-1.5172 1.2534-1.5832 1.2534-4.8815 0-2.7046-1.0555-4.2218-1.0555-1.5172-3.3643-1.5172-2.3748 0-3.6941 1.5832-1.2534 1.5832-1.2534 3.4962 0 1.6492 0.46176 3.2983 0.52773 1.6492 1.5832 2.7046 1.1214 1.0555 2.7706 1.0555z"/><path d="m126.31 77.208q0 7.5201-1.6492 12.929-1.5832 5.4092-5.3433 8.3117-3.6941 2.9025-10.027 2.9025-8.8395 0-12.929-6.3987-4.0899-6.3987-4.0899-17.745 0-7.6521 1.5832-13.061 1.6492-5.4092 5.4092-8.3117t10.027-2.9025q8.8395 0 12.929 6.3987 4.0899 6.3987 4.0899 17.877zm-21.373 0q0 6.9265 0.85756 10.489 0.85756 3.4962 3.4962 3.4962t3.4962-3.4962q0.85756-3.4962 0.85756-10.489 0-6.9924-0.85756-10.555t-3.4962-3.5622-3.4962 3.5622-0.85756 10.555z"/><path d="m164.97 77.208q0 7.5201-1.6492 12.929-1.5832 5.4092-5.3433 8.3117-3.6941 2.9025-10.027 2.9025-8.8395 0-12.929-6.3987-4.0899-6.3987-4.0899-17.745 0-7.6521 1.5832-13.061 1.6492-5.4092 5.4092-8.3117t10.027-2.9025q8.8395 0 12.929 6.3987 4.0899 6.3987 4.0899 17.877zm-21.373 0q0 6.9265 0.85756 10.489 0.85756 3.4962 3.4962 3.4962t3.4962-3.4962q0.85756-3.4962 0.85756-10.489 0-6.9924-0.85756-10.555t-3.4962-3.5622-3.4962 3.5622-0.85756 10.555z"/></g><g style="stroke-width:3.3201" aria-label="000"><path d="m88.465 133.42q0 7.2671-1.5937 12.494-1.5299 5.2272-5.1635 8.0321-3.5698 2.8048-9.6895 2.8048-8.542 0-12.494-6.1834t-3.9523-17.148q0-7.3946 1.5299-12.622 1.5937-5.2272 5.2272-8.0321 3.6336-2.8048 9.6895-2.8048 8.542 0 12.494 6.1834 3.9523 6.1834 3.9523 17.275zm-20.654 0q0 6.6934 0.8287 10.136 0.8287 3.3786 3.3786 3.3786t3.3786-3.3786q0.8287-3.3786 0.8287-10.136t-0.8287-10.199q-0.8287-3.4423-3.3786-3.4423t-3.3786 3.4423q-0.8287 3.4423-0.8287 10.199z"/><path d="m125.82 133.42q0 7.2671-1.5937 12.494-1.5299 5.2272-5.1635 8.0321-3.5698 2.8048-9.6895 2.8048-8.542 0-12.494-6.1834t-3.9523-17.148q0-7.3946 1.5299-12.622 1.5937-5.2272 5.2272-8.0321 3.6335-2.8048 9.6895-2.8048 8.542 0 12.494 6.1834 3.9523 6.1834 3.9523 17.275zm-20.654 0q0 6.6934 0.82871 10.136 0.8287 3.3786 3.3786 3.3786t3.3786-3.3786q0.82871-3.3786 0.82871-10.136t-0.82871-10.199q-0.8287-3.4423-3.3786-3.4423t-3.3786 3.4423q-0.82871 3.4423-0.82871 10.199z"/><path d="m163.18 133.42q0 7.2671-1.5937 12.494-1.5299 5.2272-5.1635 8.0321-3.5698 2.8048-9.6895 2.8048-8.542 0-12.494-6.1834-3.9523-6.1834-3.9523-17.148 0-7.3946 1.5299-12.622 1.5937-5.2272 5.2272-8.0321 3.6336-2.8048 9.6895-2.8048 8.542 0 12.494 6.1834t3.9523 17.275zm-20.654 0q0 6.6934 0.8287 10.136 0.82871 3.3786 3.3786 3.3786t3.3786-3.3786q0.82871-3.3786 0.82871-10.136t-0.82871-10.199q-0.8287-3.4423-3.3786-3.4423t-3.3786 3.4423q-0.8287 3.4423-0.8287 10.199z"/></g><g style="stroke-width:3.3458" aria-label="000"><path d="m88.719 186.64q0 7.3232-1.606 12.591-1.5417 5.2676-5.2033 8.0941-3.5974 2.8265-9.7643 2.8265-8.608 0-12.591-6.2312-3.9828-6.2312-3.9828-17.28 0-7.4517 1.5417-12.719 1.606-5.2676 5.2676-8.0941 3.6616-2.8265 9.7643-2.8265 8.608 0 12.591 6.2312 3.9828 6.2312 3.9828 17.409zm-20.813 0q0 6.7451 0.8351 10.214 0.8351 3.4046 3.4047 3.4046t3.4047-3.4046 0.8351-10.214q0-6.8093-0.8351-10.278t-3.4047-3.4689-3.4047 3.4689-0.8351 10.278z"/><path d="m126.36 186.64q0 7.3232-1.606 12.591-1.5417 5.2676-5.2033 8.0941-3.5974 2.8265-9.7643 2.8265-8.608 0-12.591-6.2312-3.9828-6.2312-3.9828-17.28 0-7.4517 1.5417-12.719 1.606-5.2676 5.2676-8.0941 3.6616-2.8265 9.7643-2.8265 8.608 0 12.591 6.2312 3.9828 6.2312 3.9828 17.409zm-20.813 0q0 6.7451 0.83511 10.214 0.8351 3.4046 3.4046 3.4046t3.4046-3.4046 0.8351-10.214q0-6.8093-0.8351-10.278t-3.4046-3.4689-3.4046 3.4689q-0.83511 3.4689-0.83511 10.278z"/><path d="m164.01 186.64q0 7.3232-1.606 12.591-1.5417 5.2676-5.2033 8.0941-3.5974 2.8265-9.7643 2.8265-8.608 0-12.591-6.2312-3.9828-6.2312-3.9828-17.28 0-7.4517 1.5417-12.719 1.606-5.2676 5.2676-8.0941 3.6616-2.8265 9.7643-2.8265 8.608 0 12.591 6.2312 3.9828 6.2312 3.9828 17.409zm-20.813 0q0 6.7451 0.8351 10.214 0.83511 3.4046 3.4046 3.4046 2.5696 0 3.4046-3.4046 0.83511-3.4046 0.83511-10.214 0-6.8093-0.83511-10.278-0.8351-3.4689-3.4046-3.4689-2.5695 0-3.4046 3.4689-0.8351 3.4689-0.8351 10.278z"/></g><g style="stroke-width:3.3081" aria-label="000"><path d="m90.346 242.31q0 7.2407-1.5879 12.449-1.5244 5.2082-5.1447 8.0028-3.5568 2.7946-9.6542 2.7946-8.511 0-12.449-6.1609-3.9379-6.1609-3.9379-17.085 0-7.3677 1.5244-12.576 1.5879-5.2082 5.2082-8.0028 3.6203-2.7946 9.6542-2.7946 8.511 0 12.449 6.1609 3.9379 6.1609 3.9379 17.212zm-20.579 0q0 6.669 0.82569 10.099 0.82569 3.3663 3.3663 3.3663t3.3663-3.3663q0.82569-3.3663 0.82569-10.099 0-6.7326-0.82569-10.162-0.82569-3.4298-3.3663-3.4298t-3.3663 3.4298q-0.82569 3.4298-0.82569 10.162z"/><path d="m127.57 242.31q0 7.2407-1.5879 12.449-1.5244 5.2082-5.1447 8.0028-3.5568 2.7946-9.6542 2.7946-8.511 0-12.449-6.1609-3.9379-6.1609-3.9379-17.085 0-7.3677 1.5244-12.576 1.5879-5.2082 5.2082-8.0028 3.6203-2.7946 9.6542-2.7946 8.511 0 12.449 6.1609 3.9379 6.1609 3.9379 17.212zm-20.579 0q0 6.669 0.82569 10.099 0.8257 3.3663 3.3663 3.3663 2.5406 0 3.3663-3.3663t0.82569-10.099q0-6.7326-0.82569-10.162-0.82569-3.4298-3.3663-3.4298-2.5406 0-3.3663 3.4298-0.82569 3.4298-0.82569 10.162z"/><path d="m164.78 242.31q0 7.2407-1.5879 12.449-1.5244 5.2082-5.1447 8.0028-3.5568 2.7946-9.6542 2.7946-8.511 0-12.449-6.1609-3.9379-6.1609-3.9379-17.085 0-7.3677 1.5244-12.576 1.5879-5.2082 5.2082-8.0028 3.6203-2.7946 9.6542-2.7946 8.511 0 12.449 6.1609 3.9379 6.1609 3.9379 17.212zm-20.579 0q0 6.669 0.82569 10.099 0.82569 3.3663 3.3663 3.3663 2.5406 0 3.3663-3.3663 0.82569-3.3663 0.82569-10.099 0-6.7326-0.82569-10.162-0.8257-3.4298-3.3663-3.4298-2.5406 0-3.3663 3.4298-0.82569 3.4298-0.82569 10.162z"/></g></g></svg>
